<?xml version="1.0" encoding="utf-8"?>
<!-- Generator: Adobe Illustrator 24.1.2, SVG Export Plug-In . SVG Version: 6.00 Build 0)  -->
<svg version="1.1" id="Capa_1" xmlns="http://www.w3.org/2000/svg" xmlns:xlink="http://www.w3.org/1999/xlink" x="0px" y="0px"
	 viewBox="0 0 399.1 194.5" style="enable-background:new 0 0 399.1 194.5;" xml:space="preserve">
<style type="text/css">
	.st0{fill:#F53642;}
</style>
<g id="Capa_2_1_">
	<g id="Capa_1-2">
		<path class="st0" d="M211.1,182.2v-9h-7.7v9h-8.2v-24.8h8.2v9.6h7.7v-9.6h8.2v24.8L211.1,182.2z"/>
		<path class="st0" d="M232.4,163.6v3h11.6v6.2h-11.6v3.2h13.1v6.2h-21.3v-24.9h21v6.2H232.4z"/>
		<path class="st0" d="M268.6,175.4v6.8h-18.6v-24.8h8.2v18L268.6,175.4z"/>
		<path class="st0" d="M279.8,178.7l-1.3,3.5h-8.4l10.5-24.8h8.5l10.1,24.8h-8.8l-1.2-3.5H279.8z M284.5,165.6l-2.6,7.3h5.2
			L284.5,165.6z"/>
		<path class="st0" d="M319.4,158.9c2,1,3.6,2.5,4.7,4.4c1.1,2,1.7,4.2,1.7,6.5c0.1,2.3-0.5,4.6-1.7,6.6c-1.2,1.9-2.8,3.4-4.8,4.3
			c-2.3,1.1-4.8,1.6-7.3,1.5h-10.8v-24.8h11.1C314.7,157.3,317.2,157.8,319.4,158.9z M309.4,175.8h3.1c1.4,0.1,2.7-0.6,3.5-1.6
			c0.9-1.3,1.4-2.8,1.3-4.4c0.1-1.6-0.4-3.2-1.4-4.4c-1-1.1-2.4-1.7-3.8-1.7h-2.7V175.8z"/>
		<path class="st0" d="M348.9,158.8c2,1,3.7,2.6,4.9,4.5c1.2,2,1.8,4.2,1.8,6.5c0,2.3-0.6,4.6-1.8,6.6c-1.2,1.9-2.9,3.5-4.9,4.6
			c-4.4,2.2-9.6,2.2-14,0c-2-1-3.7-2.6-4.9-4.6c-1.2-2-1.8-4.3-1.8-6.6c0-2.3,0.6-4.6,1.8-6.5c1.2-1.9,2.9-3.5,4.9-4.5
			C339.3,156.6,344.5,156.6,348.9,158.8L348.9,158.8z M339.3,164.8c-0.8,0.5-1.5,1.2-2,2.1c-0.5,0.9-0.7,2-0.7,3c0,1,0.2,2.1,0.7,3
			c0.5,0.9,1.1,1.6,2,2.1c0.8,0.5,1.7,0.8,2.6,0.8c0.9,0,1.8-0.3,2.6-0.8c0.8-0.5,1.4-1.3,1.8-2.1c0.5-0.9,0.7-2,0.7-3
			c0-1-0.2-2.1-0.7-3c-0.4-0.9-1-1.6-1.8-2.1c-0.8-0.5-1.7-0.8-2.6-0.8C341,164,340.1,164.2,339.3,164.8L339.3,164.8z"/>
		<path class="st0" d="M374.4,157.8c1.8,0.5,3.4,1.2,5,2.1l-3,6.2c-1.5-0.8-3-1.5-4.5-2c-1.3-0.5-2.6-0.8-4-0.9c-1,0-1.5,0.3-1.5,1
			c0,0.6,0.4,1.1,1,1.2c1,0.4,2,0.7,3,1c1.5,0.4,3,0.9,4.5,1.5c1.2,0.5,2.3,1.3,3.1,2.3c0.9,1.2,1.4,2.7,1.3,4.2
			c0.1,1.6-0.4,3.2-1.4,4.4c-1,1.2-2.3,2.1-3.8,2.6c-1.7,0.6-3.5,0.9-5.3,0.9c-2.2,0-4.5-0.3-6.6-1c-2.1-0.6-4.1-1.6-5.8-2.9
			l3.1-6.2c1.4,1.1,3,2.1,4.7,2.7c1.5,0.7,3.1,1.1,4.7,1.1c1.3,0,2-0.4,2-1.3c0-0.6-0.4-1.1-1-1.2c-1-0.4-2.1-0.8-3.1-1
			c-1.5-0.4-3-0.8-4.4-1.4c-1.2-0.5-2.2-1.2-3-2.2c-0.9-1.1-1.4-2.6-1.3-4c0-1.5,0.4-3,1.3-4.3c0.9-1.3,2.2-2.3,3.8-2.9
			c1.8-0.7,3.7-1,5.6-1C370.6,157,372.5,157.3,374.4,157.8z"/>
		<path class="st0" d="M163.5,161.9h-0.3c-3.4,0.1-4.5,0.5-7.6,2.6c-12.1,8.3-26.1,12.7-39.3,12.3c-1.7-0.1-3.4-0.2-5.1-0.4
			c-11.7-1.5-24.1-6.9-36.9-16.1c-2.2-1.6-4.5-3.3-6.9-5.3c4.6-14.4,9.2-27.4,14-39.7c0.8-2,1.6-3.9,2.4-5.9
			c10.9-3.3,25.7-10.5,34.6-26c1-1.8,10-18,2.9-25.7c-1.1-1.3-3-1.9-5.4-2h-0.2c-4.9-0.1-9.8,0.9-14.2,3.1
			c-5.9,2.9-10.4,8.6-14,13.7c-7,10-12.5,21.8-16.9,32l-1,2.3c-1.9,0.2-3.9,0.2-5.8,0.2c-1.2,0-2.5-0.1-3.7-0.2
			c-14-1.5-27.3-9.8-35.4-22.4c-7.3-11.6-9.9-25.4-7.3-38.8C20.1,31.4,28.7,19,41,11.3c2.5-1.5,5.2-2.8,8-3.7
			c0.6-0.2,2.1-0.6,2.6-0.7c1-0.2,2.1-0.4,3.1-0.5l0.6-0.1c1.4-0.1,2.7-0.2,4.1-0.1c4.5,0.2,9,1,13.3,2.3
			c12.1,3.8,22.5,13.9,29.2,28.4c2.1,4.5,5.1,7.1,8.5,7.2c3,0,5.8-1.7,7.2-4.4c1.2-1.9,1.4-4.3,0.6-6.4c-4.4-11-11.5-19.4-20.9-25.2
			C88.4,3,78.4,0.2,68.1,0C59-0.2,49.9,1.2,41.3,4C30.6,7.6,15.8,15.3,6.7,32.1C-0.3,45.3-1.9,60.7,2.4,75
			c4.2,13.8,13.8,25.4,26.6,32.1c8,4.1,16.8,6.2,25.8,6.4c4.1,0.1,8.3-0.1,12.4-0.6c-3.8,9.4-7.6,19.6-11.5,31.1
			c-7.7-7.9-14.5-16.6-20.4-25.9l-0.2-0.3c-0.2-0.2-0.3-0.5-0.5-0.8c-0.5-0.9-1.9-1.4-4.1-1.4c-4.1-0.1-10.2,1.3-11.8,3.4
			c-0.4,0.4-0.5,1-0.5,1.5c1.4,12,9.6,55,16.3,71c2,4.9,15.2,2.5,17.9,1.1c4.6-2.4,6-7.4,7.4-12.3l0.2-0.5c1.2-4.2,2.3-8,3.4-11.6
			c6.4,4.2,13.3,7.7,20.5,10.4c7.8,2.9,16,4.4,24.4,4.6l0,0c7.4,0.2,14.9-0.5,22.1-2.2c12.7-2.9,24.8-8.3,35.4-15.7
			c0.4-0.2,1.5-1,1.2-2C166.8,162.2,164.5,162,163.5,161.9z M99.4,77.7c2.3-4.1,5-7.9,8-11.6c0.3,2.4,0.1,4.9-0.4,7.2
			c-2,10.3-9.2,20.3-19.3,27.1C91.2,92.7,95.1,85.1,99.4,77.7z M50.4,160.2c-1.5,4.9-3.1,10.1-4.9,16c-2.5-7.5-3.9-15.7-5.4-23.6
			c-0.2-1.4-0.5-2.8-0.8-4.1l-0.1-0.5c3.2,3.3,6.5,6.5,10,9.6l1.5,1.3C50.7,159.3,50.5,159.7,50.4,160.2L50.4,160.2z"/>
		<path class="st0" d="M124.1,144.9c-3.3,2.1-6.1,3.9-8.9,5.5c-0.8,0.5-1.7,0.9-2.6,1c-0.4,0-0.5-0.2-0.6-0.2s-0.4-1.1,0.6-4
			c1-2.7,2.2-5.5,3.2-8.1c0.7-1.8,1.4-3.5,2.2-5.3c1.3-3.3,2.6-6.6,3.9-10.2c0.6-1.6,1.2-3.2,1.8-4.8c0.1-0.3,0.1-0.7-0.1-1.1
			c-0.2-0.3-0.5-0.5-0.8-0.5c-0.1,0-0.2,0-0.2,0l-0.7,0.2c-4.1,1.2-7.4,2.1-11.2,3.3c-1.3,0.6-2.4,1.6-2.9,3
			c-2.2,5.3-10.6,27.4-10.7,27.7c-1.1,3.2-1.1,5.7,0,7.5c1,1.5,2.7,2.4,5.1,2.4c1.2,0,2.4-0.2,3.6-0.5c1.9-0.5,3.7-1.2,5.4-2.3
			c5.2-3.3,12.2-7.7,14.1-9c2.6,4.7,6.2,6.9,11.3,6.9l0,0h0.9c9.5-0.4,18.4-4.7,26.4-12.7c4.6-4.4,7.8-10.1,9.1-16.4
			c1.3-6.8-0.2-11.2-4.9-14.1c-1.7-1-3.6-1.6-5.5-1.5c-5.9,0-13.7,4.8-17.1,7.6c0,0,9.5-32.8,24.8-59.6c0.4-0.6,0.1-1.4-0.5-1.8
			c-0.1-0.1-0.2-0.1-0.3-0.1c-4.9-0.5-14.6,4.7-15.5,7c-16.8,41.9-29.2,79.3-29.2,79.3C124.6,144.3,124.4,144.7,124.1,144.9z
			 M150.8,123.6c0.9-0.4,1.9-0.6,2.9-0.7c1.1,0,2.2,0.4,3,1.2c1,1.3,1.5,2.9,1.4,4.6c-0.1,7.3-6.4,17.2-12.9,19.9
			c-0.9,0.4-2,0.7-3,0.7c-1.1,0-2.1-0.4-2.8-1.2c-0.9-1.2-1.4-2.7-1.3-4.2C138.1,136.4,144.4,126.4,150.8,123.6z"/>
		<path class="st0" d="M114.2,102.9c-1.2,3.5-1.2,6.8,0.1,8.9c0.7,1.3,2.1,2,3.6,2c3.9,0,8.6-4.6,10.6-10.4c1.2-3.5,1.2-6.9-0.1-8.9
			c-0.7-1.3-2.1-2-3.6-2C120.9,92.5,116.3,97,114.2,102.9z"/>
		<path class="st0" d="M398.4,83.8c-1.1,0.4-5.2,1.7-5.2,1.7c-2.6-4.3-8.2-1.6-11.5,5.1c-1.5,3-1.5,7.4,5.6,3.9
			c-2.1,6.9-14.8,20.3-20.1,17.7c-1-0.6-1.7-1.6-1.9-2.8c-1.2-5,5.4-16.8,8.9-20.5c8.1-8.6,14.6-8.7,17-8.4c0.2,0,0.3-0.1,0.3-0.3
			c0-0.1,0-0.2-0.1-0.2c-1.1-1-14.5-6.1-28.5,7c-6.2,5.8-9.9,11.3-11.7,17c-0.7,2.2-1,4.5-0.9,6.8c-5.9,2.8-12,5-18.3,6.5
			c-0.8,0.2-1.5,0.3-2.3,0.3c-1.5,0.2-2.9-0.7-3.5-2.1c-3.2-6.7,3.4-20,14.1-26.5c1.2,0.7-2.9,7,1.4,7.9c7.3,1.4,14.2-10.7,8.6-13
			c-0.4-0.2-0.8-0.3-1.2-0.4H349c-6-1.3-15.3,3-15.3,3l0,0c-4.5,2.1-8.7,4.7-12.5,7.9c-6.1,5.1-9.9,10.2-11.7,16.1
			c-0.5,1.5-0.8,3-0.9,4.6c-10.1,4.9-21.3,9.3-25.6,9.9c-6.7,0.9-5.3-3.5-5.3-3.5c25.8-10.1,33.2-20.5,32.7-25.5
			c-0.5-5.4-7.7-5.6-10.7-5.6h-0.3c-8.1,0.1-16,3.6-25,11c-6.1,5.1-9.9,10.2-11.7,16.1c-0.6,1.8-0.9,3.7-0.9,5.6
			c-10.1,4.5-18.2,7.5-23.9,9c-0.6,0.2-1.2,0.3-1.8,0.3c-0.6,0.1-1.2-0.2-1.6-0.6c-0.7-1.2,0.3-3.9,0.7-4.9l0.1-0.3
			c0.9-2.3,1.8-4.6,2.7-6.8c1.9-3.5,4.8-6.5,8.2-8.5c0,0,12.1,4.4,15.8-8.9c0.5-1.8,0.6-3.5-0.2-4.8c-0.8-1.2-2.1-2-3.6-1.9H258
			c-3.5,0.2-6.1,2.6-8.6,5.2c-2,2.1-3.9,4.2-5.8,6.2l-0.6,0.7l3.7-9.8c3.1-5.6-14.1,1.2-16,5.1c-2.1,4.3-8,20.6-9.5,24.5
			c0,0,0,0,0,0.1v0.1c-10.1,4.9-21.3,9.3-25.6,9.9c-6.7,0.9-5.3-3.5-5.3-3.5c25.8-10.2,33.1-20.6,32.7-25.5
			c-0.5-5.4-7.7-5.6-10.7-5.6h-0.3c-8.1,0.1-16,3.6-24.9,11c-5.3,4.2-9.4,9.7-11.7,16.1c-3.8,10.1,4.2,17.4,12.8,15.6
			c11.3-2.3,25-8.4,31.2-11.6c-0.2,1.5,0.2,3,1,4.2c1.2,1.5,3.1,2.3,4.9,2.1c1.2,0,2.4-0.2,3.6-0.5c10.6-2.6,24.4-8.1,34.2-12.2
			c1.4,2.8,4.1,4.8,7.2,5.2c0.9,0.1,1.7,0.2,2.6,0.2c0.9,0,1.9-0.1,2.8-0.2c13.4-2.3,30.1-11,33.9-13c1.2,3.2,4.1,5.5,7.6,6
			c0.8,0.2,1.7,0.2,2.6,0.2c0.9,0,1.9-0.1,2.8-0.2c10.5-1.8,22.9-7.4,29.7-10.8c1.5,2.4,4,4,6.8,4.4c1.1,0.2,2.3,0.3,3.4,0.3
			c0.6,0,1.3,0,1.9-0.2c15.6-1.1,27.5-17.7,29.7-29.1c1-0.9,2.1-1.7,3.2-2.5C399.4,86.8,399.5,83.5,398.4,83.8z M292.6,97
			c6.4-4,4.5,4.1-2,11c-3.5,3.9-7.9,6.9-12.8,8.7C278.6,111.5,286.3,100.9,292.6,97z M204.4,109.8c6.4-4,4.4,4.1-2.1,11
			c-3.5,3.9-7.9,6.9-12.8,8.7C190.5,124.3,198.2,113.7,204.4,109.8L204.4,109.8z"/>
	</g>
</g>
</svg>
