<svg height="91" width="400" xmlns="http://www.w3.org/2000/svg" xmlns:xlink="http://www.w3.org/1999/xlink"><linearGradient id="a" x1="50%" x2="50%" y1="0%" y2="100%"><stop offset="0" stop-color="#37464e"/><stop offset="1" stop-color="#2b2f36"/></linearGradient><linearGradient id="b" x1="50%" x2="50%" y1="0%" y2="100%"><stop offset="0" stop-color="#15f3f5"/><stop offset="1" stop-color="#08b3c4"/></linearGradient><g fill="none" fill-rule="evenodd"><path d="m355.854194 72.8128169c-4.634839-4.6820141-6.956129-10.8571972-6.956129-18.510169 0-7.6452817 2.380645-13.7550986 7.141935-18.3179155 4.76-4.5653803 10.389677-6.8493521 16.87871-6.8493521 6.494193 0 11.84129 3.0875915 16.047742 9.2538028v-8.5155493h10.388387v49.2284366h-10.388387v-8.0464507c-1.980646 2.837662-4.498065 5.0139718-7.56 6.5225211-3.060646 1.5149578-6.136775 2.2685916-9.228387 2.2685916-6.245162-.0012817-11.683871-2.3442113-16.323871-7.0339155m3.615483-18.034662c0 4.7191831 1.514839 8.5552817 4.547097 11.5172676 3.027097 2.961986 6.585807 4.4436198 10.664516 4.4436198 4.081291 0 7.544516-1.4918874 10.388387-4.4897606 2.842581-2.986338 4.267097-6.8326902 4.267097-11.5211127 0-4.6832958-1.424516-8.6065493-4.267097-11.7479718-2.843871-3.1465493-6.341935-4.7179014-10.48129-4.7179014-4.141935 0-7.700645 1.5713521-10.665806 4.7179014-2.967742 3.1414225-4.452904 7.0800563-4.452904 11.7979577m-55.027096-2.2673098v26.646338h-10.389678v-49.2284366h10.389678v8.975676c1.668387-3.0222253 3.974193-5.3907887 6.908387-7.118507 2.936774-1.729 6.105806-2.5954225 9.508387-2.5954225 5.563871 0 10.059355 1.7008028 13.492903 5.0908732 3.432258 3.3939155 5.147097 8.2989437 5.147097 14.7138028v30.1620141h-10.387097v-27.0180282c0-9.066676-3.775484-13.6000141-11.317419-13.6000141-3.584516 0-6.708387 1.1906902-9.366452 3.5592536-2.656774 2.3775352-3.985806 5.8457887-3.985806 10.4124507m-42.35742-23.3216338c6.740645 0 12.335484 1.8674225 16.787097 5.5971408 4.452903 3.7348451 6.709677 8.5950141 6.772903 14.5805071l-.08.1807183-35.814193 15.0816479c3.214193 3.950169 7.590967 5.9252535 13.12258 5.9252535 5.534194 0 10.095484-2.1609296 13.682581-6.4763803l6.12129 6.7557887c-5.873548 6.0457324-12.797419 9.0666761-20.776774 9.0666761-6.988387 0-12.984516-2.3147324-17.990968-6.9365071-5.010322-4.6294648-7.512258-10.7354366-7.512258-18.3268873 0-5.240831 1.299355-9.8536338 3.894194-13.8345634 2.59871-3.9770845 5.814193-6.9070281 9.647742-8.7847042 3.829677-1.8892113 7.88-2.8286901 12.145806-2.8286901m-15.672258 25.6363662c0 .7972112.029678 1.3880704.091613 1.7533521l27.36129-11.7518169c-2.101935-4.0693662-5.845161-6.1046902-11.221935-6.1046902-4.082581 0-7.810323 1.4162676-11.176774 4.256493-3.372903 2.8389437-5.054194 6.7891127-5.054194 11.846662m-14.674838-15.176493c-5.132904 0-8.99613 1.6661972-11.592259 4.9985916-2.597419 3.3298309-3.895483 7.8016478-3.895483 13.414169v21.095338h-10.389678v-49.2284366h10.389678v9.9049014c1.668387-3.0863099 3.939354-5.6112394 6.816774-7.5850423 2.873548-1.9789295 5.918709-2.9940281 9.132903-3.056831l.094194 10.4573099zm-50.858065-9.7216197h10.3883871v49.2297183h-10.3883871zm-37.376774-9.3717183c-3.348387 0-6.085161.6831408-8.227097 2.0442958-2.140645 1.3611549-3.215484 3.4169859-3.215484 6.1662112 0 2.7517888 1.074839 4.8614507 3.215484 6.316169 2.141936 1.456 6.700645 3.0247888 13.68 4.7127747 6.976774 1.6867042 12.233548 4.0475774 15.775484 7.0928732 3.536774 3.0414507 5.304516 7.5260845 5.304516 13.4513381 0 5.9252535-2.237419 10.7354366-6.71871 14.4318309-4.477419 3.689986-10.352258 5.5343381-17.620645 5.5343381-10.647742 0-20.095484-3.6579437-28.336774-10.9763944l7.203871-8.6514085c6.88129 5.9675493 14.024516 8.9397888 21.423226 8.9397888 3.699355 0 6.636129-.7920845 8.812903-2.3775352 2.172903-1.584169 3.260645-3.6925493 3.260645-6.3136057 0-2.6249014-1.020645-4.6640704-3.067097-6.1187887-2.046451-1.4598451-5.566451-2.783831-10.563871-3.9822113-5.003871-1.2022253-8.798709-2.2993521-11.394838-3.3067605-2.59871-1.0022817-4.900645-2.3147324-6.912258-3.9373521-4.025807-3.0401691-6.036129-7.7055212-6.036129-13.9883662 0-6.2815634 2.286451-11.1199437 6.863225-14.5202676 4.576775-3.400324 10.23871-5.10369018 16.992258-5.10369018 4.349678 0 8.664517.71390138 12.949678 2.13657748 4.283871 1.4290845 7.984516 3.4349296 11.100645 6.0303521l-6.134193 8.6437183c-2.014194-1.8135915-4.739355-3.3067606-8.178065-4.4705352-3.442581-1.1689014-6.834839-1.7533521-10.176774-1.7533521" fill="#37474f"/><path d="m186.330323 23.7868873c-.214194.2140423-.563871.2140423-.776775 0l-6.214193-6.2020986c-.214194-.2127605-.214194-.5588169 0-.7741408l6.214193-6.1995352c.212904-.2140423.562581-.2140423.776775 0l6.214193 6.1995352c.212903.2153239.212903.5613803 0 .7741408z" fill="#07aec0"/><path d="m89.9445161 42.3483239c1.7548387 1.7366902 1.7548387 4.5538451 0 6.2892536l-40.8141935 40.4116901c-1.7548387 1.7366901-4.5987097 1.7366901-6.3535484 0l-40.8167742-40.4116901c-1.75354839-1.7354085-1.75354839-4.5525634 0-6.2892536l40.8167742-40.41040841c1.7535484-1.73669014 4.5974193-1.73669014 6.3535484 0z" fill="url(#a)"/><path d="m47.1070968 45.8930516c-.3883871 1.2470846-.5961291 2.5710705-.5961291 3.9424789 0 7.4004789 6.0593549 13.4000704 13.5341936 13.4000704 1.7522581 0 3.4270968-.330676 4.9651613-.9317887l-16.1264516 15.9647324c-1.4593549 1.4457465-3.7135484 1.6239014-5.3690323.5357465-6.0645161-9.8100564-8.5574193-20.0340986-7.6645161-28.9495352l-9.5612903-.0064085c-.8593549.0435775-1.5858065-.2819718-2.1070968-1.1137887 0 0-7.7329032-12.8873944-8.2916129-13.9332535-.5574194-1.0458592-.1883871-2.3762536.8129032-2.2224507l15.4103226 3.4310845c1.4129032.421676 1.9432258.6921126 2.3006451 1.6149295l2.1819355 5.6266198 2.8929033-11.6044226c.2516129-1.2727183.5819354-2.1711831 1.6903225-2.7492253l16.2670968-7.4145775c1.5019355-.7561972 3.0722581.1935352 2.7974194 1.5816056l-4.0322581 16.8631972c-.6503226 1.9186902-.9019355 2.4595634-2.1548387 2.9632676z" fill="url(#b)"/></g></svg>