<svg xmlns="http://www.w3.org/2000/svg" width="35.651" height="48.963" viewBox="0 0 35.651 48.963">
  <g id="XZxMkG" transform="translate(0 0)">
    <g id="Grupo_192" data-name="Grupo 192" transform="translate(0 0)">
      <path id="Trazado_136" data-name="Trazado 136" d="M752.449,16.067l6.637,6.635c.367.366.74.726,1.1,1.1a1.159,1.159,0,0,1-.609,2.012c-1.438.308-2.882.593-4.327.867a.448.448,0,0,0-.424.424c-.27,1.414-.572,2.821-.843,4.234a1.2,1.2,0,0,1-.844,1.021,1.169,1.169,0,0,1-1.265-.387c-1.323-1.333-2.655-2.657-3.979-3.988a3.232,3.232,0,0,1-.288-.389l-.123.069c-.009.15-.025.3-.025.45,0,2.024-.009,4.048,0,6.071a1.222,1.222,0,0,1-.646,1.207,1.19,1.19,0,0,1-1.318-.147c-1.178-.8-2.371-1.576-3.547-2.379a.485.485,0,0,0-.644,0c-1.163.792-2.344,1.559-3.508,2.35a1.228,1.228,0,0,1-1.359.174,1.258,1.258,0,0,1-.647-1.256c.01-4.906,0-9.812.016-14.718a.609.609,0,0,0-.444-.666c-5.917-2.588-9.454-7.073-10.309-13.475a16.686,16.686,0,0,1,13.33-18.4A16.633,16.633,0,0,1,757.973-.045c1.223,6.115-.6,11.376-5.125,15.684-.105.1-.216.2-.321.3A.718.718,0,0,0,752.449,16.067Zm-25.2-12.793A14.378,14.378,0,1,0,756,3.283a14.378,14.378,0,1,0-28.755-.01Zm17.853,28.9V19.622a16.878,16.878,0,0,1-6.948.007V32.172l2.3-1.528c1.118-.746,1.234-.747,2.336-.013Zm11.949-8.223c-2.17-2.164-4.251-4.245-6.346-6.31a.532.532,0,0,0-.477-.031c-.8.377-1.58.811-2.392,1.169a.546.546,0,0,0-.386.606c.016,1.488-.006,2.977.02,4.466a1.137,1.137,0,0,0,.3.7c1.311,1.343,2.645,2.663,3.973,3.988.1.1.209.186.356.315.211-1.05.412-2.045.607-3.039a1.3,1.3,0,0,1,1.254-1.255C754.953,24.367,755.948,24.168,757.05,23.949Z" transform="translate(-724.912 13.43)" fill="#ff173b"/>
      <path id="Trazado_137" data-name="Trazado 137" d="M740.15,11.182c.158-.965.308-2.006.51-3.036a.725.725,0,0,0-.266-.753c-.69-.66-1.357-1.345-2.045-2.007a1.153,1.153,0,0,1-.371-1.269,1.146,1.146,0,0,1,1.033-.822c.977-.134,1.949-.308,2.927-.434a.655.655,0,0,0,.571-.429c.42-.874.874-1.732,1.3-2.606a1.19,1.19,0,0,1,2.22,0c.422.873.876,1.732,1.3,2.606a.652.652,0,0,0,.573.424c.994.127,1.982.3,2.974.447a1.117,1.117,0,0,1,.982.817,1.128,1.128,0,0,1-.341,1.233c-.707.689-1.4,1.393-2.113,2.076a.647.647,0,0,0-.232.672c.183.936.315,1.882.48,2.821a1.2,1.2,0,0,1-1.819,1.359c-.826-.444-1.671-.853-2.491-1.307a.775.775,0,0,0-.847.007q-1.3.711-2.625,1.364A1.173,1.173,0,0,1,740.15,11.182Zm1.434-5.909c.421.424.769.784,1.125,1.133a1.261,1.261,0,0,1,.39,1.231c-.1.492-.157.991-.246,1.571.544-.28.992-.5,1.43-.739a1.228,1.228,0,0,1,1.248-.008c.454.241.916.468,1.446.738-.088-.568-.144-1.063-.246-1.549a1.254,1.254,0,0,1,.416-1.267c.366-.337.729-.676,1.187-1.1-.637-.1-1.112-.177-1.59-.238a1.359,1.359,0,0,1-1.149-.847c-.195-.433-.426-.85-.683-1.355-.271.539-.5.98-.716,1.426a1.25,1.25,0,0,1-1,.751C742.684,5.092,742.174,5.179,741.583,5.273Z" transform="translate(-728.2 10.27)" fill="#ff173b"/>
    </g>
  </g>
</svg>
