<svg id="Grupo_75" data-name="Grupo 75" xmlns="http://www.w3.org/2000/svg" width="25.581" height="25.581" viewBox="0 0 25.581 25.581">
  <g id="Grupo_74" data-name="Grupo 74" transform="translate(0)">
    <path id="Trazado_72" data-name="Trazado 72" d="M211.9,209.448A2.448,2.448,0,1,1,209.448,207,2.448,2.448,0,0,1,211.9,209.448Z" transform="translate(-196.658 -196.657)" fill="#fff"/>
    <path id="Trazado_73" data-name="Trazado 73" d="M147.231,137.178a2.432,2.432,0,0,0-1.394-1.394,4.065,4.065,0,0,0-1.364-.253c-.775-.035-1.007-.043-2.968-.043s-2.193.007-2.968.043a4.068,4.068,0,0,0-1.364.253,2.433,2.433,0,0,0-1.394,1.394,4.065,4.065,0,0,0-.253,1.364c-.035.774-.043,1.007-.043,2.968s.008,2.193.043,2.968a4.064,4.064,0,0,0,.253,1.364,2.432,2.432,0,0,0,1.394,1.394,4.059,4.059,0,0,0,1.364.253c.774.035,1.006.043,2.968.043s2.194-.007,2.968-.043a4.059,4.059,0,0,0,1.364-.253,2.432,2.432,0,0,0,1.394-1.394,4.068,4.068,0,0,0,.253-1.364c.035-.775.043-1.007.043-2.968s-.007-2.194-.043-2.968A4.059,4.059,0,0,0,147.231,137.178Zm-5.726,8.1a3.771,3.771,0,1,1,3.771-3.771A3.771,3.771,0,0,1,141.505,145.281Zm3.921-6.811a.881.881,0,1,1,.881-.881A.881.881,0,0,1,145.426,138.47Z" transform="translate(-128.715 -128.718)" fill="#fff"/>
    <path id="Trazado_74" data-name="Trazado 74" d="M12.791,0A12.791,12.791,0,1,0,25.581,12.791,12.792,12.792,0,0,0,12.791,0Zm7.3,15.819A5.388,5.388,0,0,1,19.75,17.6,3.755,3.755,0,0,1,17.6,19.75a5.392,5.392,0,0,1-1.783.341c-.783.036-1.033.044-3.028.044s-2.245-.009-3.028-.044A5.392,5.392,0,0,1,7.98,19.75,3.755,3.755,0,0,1,5.832,17.6a5.387,5.387,0,0,1-.341-1.783c-.036-.783-.045-1.034-.045-3.028s.008-2.245.044-3.028A5.389,5.389,0,0,1,5.832,7.98,3.758,3.758,0,0,1,7.98,5.832,5.393,5.393,0,0,1,9.763,5.49c.783-.036,1.033-.044,3.028-.044s2.245.009,3.028.045a5.4,5.4,0,0,1,1.783.341A3.757,3.757,0,0,1,19.75,7.98a5.388,5.388,0,0,1,.342,1.783c.036.783.044,1.033.044,3.028S20.127,15.036,20.091,15.819Z" fill="#fff"/>
  </g>
</svg>