<svg id="Grupo_52" data-name="Grupo 52" xmlns="http://www.w3.org/2000/svg" width="127.925" height="62.343" viewBox="0 0 127.925 62.343">
  <g id="Grupo_12" data-name="Grupo 12" transform="translate(62.553 50.331)">
    <path id="Trazado_25" data-name="Trazado 25" d="M1360.856,152.4v-2.872h-2.462V152.4h-2.639v-7.962h2.639v3.088h2.462v-3.088h2.634V152.4Z" transform="translate(-1355.755 -144.33)" fill="#fff"/>
    <path id="Trazado_26" data-name="Trazado 26" d="M1371.111,146.442v.976h3.721v2h-3.721v.992h4.2v2h-6.837v-7.962h6.738v2Z" transform="translate(-1359.152 -144.33)" fill="#fff"/>
    <path id="Trazado_27" data-name="Trazado 27" d="M1385.737,150.213v2.19h-5.955v-7.962h2.64v5.772Z" transform="translate(-1362.173 -144.33)" fill="#fff"/>
    <path id="Trazado_28" data-name="Trazado 28" d="M1391.638,151.277l-.41,1.126h-2.7l3.36-7.962h2.7l3.239,7.962h-2.806l-.4-1.126Zm1.519-4.214-.837,2.329h1.658Z" transform="translate(-1364.51 -144.33)" fill="#fff"/>
    <path id="Trazado_29" data-name="Trazado 29" d="M1407.977,144.928a3.573,3.573,0,0,1,1.511,1.392,4.042,4.042,0,0,1,.535,2.1,3.961,3.961,0,0,1-.546,2.1,3.648,3.648,0,0,1-1.55,1.392,5.226,5.226,0,0,1-2.334.493h-3.454v-7.962h3.554A5.053,5.053,0,0,1,1407.977,144.928Zm-3.2,5.429h.986a1.392,1.392,0,0,0,1.14-.522,2.146,2.146,0,0,0,.424-1.4,2.093,2.093,0,0,0-.46-1.42,1.543,1.543,0,0,0-1.231-.532h-.859Z" transform="translate(-1368.145 -144.33)" fill="#fff"/>
    <path id="Trazado_30" data-name="Trazado 30" d="M1420.6,144.856a3.878,3.878,0,0,1,2.126,3.532,3.926,3.926,0,0,1-2.126,3.565,4.706,4.706,0,0,1-2.248.532,4.754,4.754,0,0,1-2.248-.526,3.881,3.881,0,0,1-1.561-1.464,4.024,4.024,0,0,1-.56-2.107,3.938,3.938,0,0,1,.56-2.09,3.884,3.884,0,0,1,1.561-1.442,5.112,5.112,0,0,1,4.5,0Zm-3.06,1.913a1.78,1.78,0,0,0-.625.671,1.978,1.978,0,0,0-.232.959,2.015,2.015,0,0,0,.232.965,1.811,1.811,0,0,0,.625.682,1.535,1.535,0,0,0,.845.25,1.455,1.455,0,0,0,.829-.25,1.721,1.721,0,0,0,.59-.682,2.121,2.121,0,0,0,.216-.965,2.082,2.082,0,0,0-.216-.959,1.69,1.69,0,0,0-.59-.671,1.483,1.483,0,0,0-.829-.244A1.565,1.565,0,0,0,1417.535,146.769Z" transform="translate(-1371.307 -144.301)" fill="#fff"/>
    <path id="Trazado_31" data-name="Trazado 31" d="M1432.046,144.545a5.905,5.905,0,0,1,1.608.687l-.953,2a10.263,10.263,0,0,0-1.461-.649,4.019,4.019,0,0,0-1.278-.283c-.325,0-.488.111-.488.333a.435.435,0,0,0,.308.391,6.231,6.231,0,0,0,.972.314,10.86,10.86,0,0,1,1.428.465,2.621,2.621,0,0,1,.987.743,2.03,2.03,0,0,1,.424,1.348,2.242,2.242,0,0,1-.446,1.425,2.634,2.634,0,0,1-1.208.849,4.935,4.935,0,0,1-1.695.277,7.143,7.143,0,0,1-2.126-.333,5.908,5.908,0,0,1-1.86-.937l.982-1.974a5.777,5.777,0,0,0,1.51.868,4.2,4.2,0,0,0,1.517.369q.638,0,.638-.41a.442.442,0,0,0-.313-.4,6.434,6.434,0,0,0-1.007-.314,10.453,10.453,0,0,1-1.409-.432,2.5,2.5,0,0,1-.978-.709,1.909,1.909,0,0,1-.413-1.286,2.281,2.281,0,0,1,.418-1.367,2.671,2.671,0,0,1,1.192-.9,4.668,4.668,0,0,1,1.794-.32A6.936,6.936,0,0,1,1432.046,144.545Z" transform="translate(-1374.588 -144.289)" fill="#fff"/>
  </g>
  <path id="Trazado_32" data-name="Trazado 32" d="M1322.829,127.516c-.035,0-.066,0-.09,0a3.546,3.546,0,0,0-2.431.836,21.438,21.438,0,0,1-12.613,3.95c-.549-.016-1.1-.059-1.63-.126A26.318,26.318,0,0,1,1294.237,127c-.708-.509-1.427-1.067-2.2-1.7,1.47-4.61,2.942-8.77,4.5-12.712q.377-.951.765-1.9a18.7,18.7,0,0,0,11.084-8.325c.334-.582,3.2-5.756.94-8.245a2.379,2.379,0,0,0-1.739-.652l-.07,0a9.739,9.739,0,0,0-4.55.986,12.887,12.887,0,0,0-4.482,4.4,60.464,60.464,0,0,0-5.432,10.247q-.161.374-.324.751a15.711,15.711,0,0,1-1.874.056c-.4-.012-.8-.039-1.2-.08a15.667,15.667,0,0,1-11.373-7.173,17.264,17.264,0,0,1-2.329-12.449,16.747,16.747,0,0,1,7.579-10.971,12.7,12.7,0,0,1,2.578-1.176c.2-.07.682-.194.846-.23a6.747,6.747,0,0,1,1-.16l.193-.021a9.433,9.433,0,0,1,1.305-.045,16.513,16.513,0,0,1,4.252.747c3.875,1.215,7.2,4.448,9.357,9.1.675,1.457,1.642,2.278,2.72,2.309a2.644,2.644,0,0,0,2.309-1.4,2.373,2.373,0,0,0,.187-2.056,16.391,16.391,0,0,0-6.7-8.07,19.055,19.055,0,0,0-9.352-2.613,25.351,25.351,0,0,0-8.594,1.28,19.206,19.206,0,0,0-11.09,9,18.1,18.1,0,0,0-1.392,13.75,17.253,17.253,0,0,0,8.512,10.288,18.9,18.9,0,0,0,8.27,2.049,26.859,26.859,0,0,0,3.976-.193c-1.233,3.014-2.441,6.287-3.686,9.985a50.979,50.979,0,0,1-6.529-8.3l-.066-.1c-.05-.081-.1-.16-.148-.241-.172-.288-.61-.445-1.3-.465-1.323-.039-3.259.43-3.77,1.093a.656.656,0,0,0-.149.484c.441,3.858,3.067,17.64,5.213,22.763.654,1.561,4.875.8,5.73.353,1.461-.758,1.925-2.376,2.374-3.94l.047-.166c.39-1.354.747-2.568,1.089-3.7a32.721,32.721,0,0,0,6.568,3.348,24.459,24.459,0,0,0,7.81,1.492h0a28.431,28.431,0,0,0,7.088-.7,32.658,32.658,0,0,0,11.365-5.04c.117-.08.47-.325.4-.655C1323.86,127.591,1323.135,127.525,1322.829,127.516Zm-20.564-26.989a27.4,27.4,0,0,1,2.573-3.7,6.887,6.887,0,0,1-.127,2.317,14.117,14.117,0,0,1-6.176,8.682A68.871,68.871,0,0,1,1302.265,100.527Zm-15.716,26.422c-.5,1.574-1.007,3.25-1.559,5.115a57.805,57.805,0,0,1-1.721-7.575c-.081-.446-.161-.887-.241-1.321l-.028-.152c1.015,1.053,2.09,2.087,3.206,3.08.16.141.32.281.481.42Q1286.619,126.732,1286.549,126.949Z" transform="translate(-1270.401 -75.613)" fill="#ff173b"/>
  <path id="Trazado_33" data-name="Trazado 33" d="M1321.438,128.792c-1.06.682-1.953,1.243-2.86,1.765a1.877,1.877,0,0,1-.845.32c-.136,0-.171-.057-.184-.078-.04-.066-.145-.353.2-1.274.325-.874.689-1.754,1.041-2.606.233-.564.467-1.127.69-1.693.421-1.063.83-2.127,1.263-3.254q.288-.749.592-1.538a.387.387,0,0,0-.027-.338.314.314,0,0,0-.268-.161.281.281,0,0,0-.082.012l-.219.063c-1.322.382-2.367.683-3.575,1.055a1.665,1.665,0,0,0-.929.959c-.691,1.708-3.4,8.794-3.433,8.873a2.806,2.806,0,0,0,0,2.4,1.8,1.8,0,0,0,1.634.756,4.7,4.7,0,0,0,1.162-.163,6.223,6.223,0,0,0,1.738-.734c1.672-1.049,3.9-2.481,4.52-2.877a3.806,3.806,0,0,0,3.607,2.211h0c.091,0,.183,0,.277-.006a12.779,12.779,0,0,0,8.471-4.067,10.053,10.053,0,0,0,2.908-5.267c.424-2.168-.077-3.607-1.577-4.531a3.323,3.323,0,0,0-1.769-.491c-1.9,0-4.394,1.528-5.5,2.432a100.918,100.918,0,0,1,7.956-19.1.421.421,0,0,0-.266-.62c-1.585-.146-4.682,1.517-4.979,2.257-5.386,13.426-9.345,25.419-9.345,25.419A.613.613,0,0,1,1321.438,128.792Zm8.549-6.818a2.351,2.351,0,0,1,.919-.212,1.234,1.234,0,0,1,.951.4,2.134,2.134,0,0,1,.431,1.46,8.1,8.1,0,0,1-4.124,6.371,2.539,2.539,0,0,1-.971.223,1.163,1.163,0,0,1-.912-.377,2,2,0,0,1-.394-1.364C1325.919,126.066,1327.949,122.845,1329.987,121.974Z" transform="translate(-1281.656 -82.348)" fill="#ff173b"/>
  <path id="Trazado_34" data-name="Trazado 34" d="M1320.256,119.388a3.483,3.483,0,0,0,.019,2.854,1.293,1.293,0,0,0,1.148.644c1.255,0,2.751-1.47,3.407-3.348a3.478,3.478,0,0,0-.021-2.853,1.292,1.292,0,0,0-1.146-.643C1322.408,116.042,1320.911,117.512,1320.256,119.388Z" transform="translate(-1283.641 -86.413)" fill="#ff173b"/>
  <path id="Trazado_35" data-name="Trazado 35" d="M1418.476,111.589c-.37.137-1.657.537-1.657.537-.845-1.372-2.624-.522-3.7,1.64-.475.961-.47,2.36,1.783,1.237-.687,2.207-4.748,6.514-6.439,5.685a1.472,1.472,0,0,1-.622-.881c-.382-1.61,1.719-5.369,2.863-6.582,2.607-2.765,4.683-2.8,5.456-2.683a.1.1,0,0,0,.068-.172c-.355-.306-4.655-1.954-9.12,2.254a13.068,13.068,0,0,0-3.753,5.466,6.293,6.293,0,0,0-.284,2.183,30.757,30.757,0,0,1-5.9,2.057,3.623,3.623,0,0,1-.745.088,1.089,1.089,0,0,1-1.117-.663c-1.019-2.161,1.078-6.407,4.519-8.483.375.229-.934,2.254.45,2.527,2.341.461,4.539-3.439,2.763-4.169a2.485,2.485,0,0,0-.372-.118l-.056-.012c-1.924-.416-4.9.959-4.9.959h0a17,17,0,0,0-3.99,2.543,11.109,11.109,0,0,0-3.761,5.151,5.81,5.81,0,0,0-.279,1.458,40.522,40.522,0,0,1-8.211,3.173c-2.139.3-1.7-1.126-1.7-1.126,8.279-3.248,10.628-6.588,10.48-8.157-.165-1.735-2.466-1.795-3.435-1.795h-.094c-2.6.036-5.14,1.159-8,3.538a11.13,11.13,0,0,0-3.763,5.151,5.587,5.587,0,0,0-.286,1.809,55.54,55.54,0,0,1-7.672,2.876,2.309,2.309,0,0,1-.57.086.539.539,0,0,1-.5-.208c-.225-.38.108-1.239.234-1.563l.037-.1c.276-.744.575-1.477.856-2.163a7.27,7.27,0,0,1,2.63-2.733,3.777,3.777,0,0,0,5.065-2.863,1.955,1.955,0,0,0-.055-1.527,1.292,1.292,0,0,0-1.144-.618c-.04,0-.079,0-.121,0a4.406,4.406,0,0,0-2.766,1.675c-.633.657-1.264,1.342-1.872,2l-.195.212c.223-.576,1.207-3.131,1.207-3.131.982-1.782-4.507.386-5.123,1.641-.676,1.379-2.562,6.6-3.043,7.855,0,0-.009.012-.011.032l0,.018a40.52,40.52,0,0,1-8.208,3.172c-2.14.3-1.7-1.125-1.7-1.125,8.279-3.249,10.628-6.589,10.48-8.158-.163-1.735-2.466-1.794-3.434-1.794h-.094c-2.6.035-5.14,1.159-8,3.537a11.951,11.951,0,0,0-3.762,5.151,3.584,3.584,0,0,0,4.09,5.018,45.34,45.34,0,0,0,10.007-3.719,1.975,1.975,0,0,0,.3,1.362,1.857,1.857,0,0,0,1.588.673,4.8,4.8,0,0,0,1.147-.156,84.888,84.888,0,0,0,10.978-3.912,3.073,3.073,0,0,0,2.31,1.667,4.7,4.7,0,0,0,.83.072,5.231,5.231,0,0,0,.887-.076c4.308-.749,9.659-3.521,10.859-4.163a3.035,3.035,0,0,0,2.423,1.925,4.641,4.641,0,0,0,.825.072,5.147,5.147,0,0,0,.892-.078,38.989,38.989,0,0,0,9.508-3.467,3.088,3.088,0,0,0,2.167,1.409,6.13,6.13,0,0,0,1.093.108,3.62,3.62,0,0,0,.623-.05c4.994-.351,8.816-5.657,9.519-9.317a12.476,12.476,0,0,1,1.036-.812C1418.787,112.552,1418.818,111.5,1418.476,111.589Zm-33.935,4.248c2.037-1.272,1.426,1.312-.657,3.532a9.791,9.791,0,0,1-4.109,2.772C1380.081,120.494,1382.546,117.083,1384.541,115.837Zm-28.268,4.089c2.038-1.272,1.425,1.312-.657,3.532a9.782,9.782,0,0,1-4.11,2.772C1351.813,124.583,1354.278,121.173,1356.273,119.927Z" transform="translate(-1290.758 -84.745)" fill="#ff173b"/>
</svg>