<svg xmlns="http://www.w3.org/2000/svg" width="77.083" height="74.099" viewBox="0 0 77.083 74.099">
  <g id="Grupo_102" data-name="Grupo 102" transform="translate(-1039.198 -39.83)">
    <g id="Grupo_61" data-name="Grupo 61" transform="translate(1043.837 44.289)">
      <path id="Trazado_57" data-name="Trazado 57" d="M1120.305,81.253a15.781,15.781,0,0,1-1.754-3.285,16,16,0,0,1-.53-3.741c-.153-2.277-.311-4.631-1.7-6.547-1.376-1.9-3.557-2.775-5.664-3.624a16.294,16.294,0,0,1-3.43-1.683,15.449,15.449,0,0,1-2.531-2.634c-1.406-1.695-3-3.616-5.326-4.371a7.513,7.513,0,0,0-2.354-.354,18.427,18.427,0,0,0-4.525.761,15.47,15.47,0,0,1-3.6.643,16.3,16.3,0,0,1-3.762-.654,18.533,18.533,0,0,0-4.442-.738,7.226,7.226,0,0,0-2.272.341c-2.251.734-3.762,2.545-5.223,4.3a16.011,16.011,0,0,1-2.627,2.716,15.813,15.813,0,0,1-3.351,1.628c-2.133.849-4.338,1.727-5.749,3.671-1.354,1.863-1.514,4.186-1.668,6.433a16.574,16.574,0,0,1-.555,3.86,16.576,16.576,0,0,1-1.819,3.45c-1.2,1.909-2.431,3.883-2.431,6.186,0,2.4,1.268,4.408,2.495,6.349a15.8,15.8,0,0,1,1.755,3.286,16.047,16.047,0,0,1,.529,3.742c.153,2.276.31,4.63,1.7,6.546,1.376,1.9,3.556,2.775,5.665,3.624a16.33,16.33,0,0,1,3.429,1.682,15.43,15.43,0,0,1,2.532,2.635c1.406,1.695,3,3.616,5.326,4.371a7.505,7.505,0,0,0,2.352.353,18.4,18.4,0,0,0,4.524-.761,15.472,15.472,0,0,1,3.6-.643,16.3,16.3,0,0,1,3.762.654,18.552,18.552,0,0,0,4.443.737,7.222,7.222,0,0,0,2.272-.341c2.252-.733,3.763-2.545,5.225-4.3.535-.642,1.053-1.262,1.583-1.8a32.226,32.226,0,0,1-11.7-1.538,28.81,28.81,0,0,1-5.8-2.908c-.293,1-.6,2.069-.935,3.263l-.042.146c-.385,1.378-.784,2.8-2.065,3.479-.75.4-4.459,1.091-5.043-.278-1.917-4.5-4.306-16.6-4.716-19.995a.579.579,0,0,1,.128-.426c.447-.586,2.146-1.009,3.311-.983.609.014,1,.149,1.148.4.042.07.087.141.132.211l.057.092a44.92,44.92,0,0,0,5.792,7.259c1.073-3.26,2.118-6.146,3.185-8.8a23.586,23.586,0,0,1-3.5.192,16.623,16.623,0,0,1-7.287-1.755,15.179,15.179,0,0,1-7.547-9,15.928,15.928,0,0,1,1.145-12.1,16.9,16.9,0,0,1,9.7-7.983,22.3,22.3,0,0,1,7.552-1.176,16.767,16.767,0,0,1,8.242,2.245,14.419,14.419,0,0,1,5.937,7.06,2.088,2.088,0,0,1-.153,1.81,2.327,2.327,0,0,1-2.023,1.249c-.949-.022-1.8-.738-2.406-2.016-1.927-4.081-4.868-6.905-8.284-7.952a14.526,14.526,0,0,0-3.744-.633,8.351,8.351,0,0,0-1.148.047l-.171.019a5.8,5.8,0,0,0-.879.146c-.145.032-.567.144-.743.207a11.172,11.172,0,0,0-2.261,1.049,14.73,14.73,0,0,0-6.6,9.695,15.179,15.179,0,0,0,2.12,10.938,13.782,13.782,0,0,0,10.045,6.245c.354.034.709.055,1.057.063a13.729,13.729,0,0,0,1.648-.061q.14-.332.281-.663a53.233,53.233,0,0,1,4.719-9.045,11.336,11.336,0,0,1,3.917-3.9,8.566,8.566,0,0,1,4-.893h.061a2.1,2.1,0,0,1,1.534.564c2,2.176-.489,6.744-.78,7.258a16.451,16.451,0,0,1-9.7,7.387q-.336.833-.662,1.672c-1.347,3.476-2.619,7.144-3.885,11.208.682.554,1.318,1.041,1.943,1.484a23.147,23.147,0,0,0,10.435,4.481c.469.057.953.071,1.435.1a23,23,0,0,0,7.892-.791,10.505,10.505,0,0,0,4.8-3.287c1.353-1.863,1.513-4.187,1.668-6.433a16.551,16.551,0,0,1,.556-3.861,16.522,16.522,0,0,1,1.819-3.449c1.195-1.909,2.431-3.883,2.431-6.185C1122.8,85.2,1121.532,83.194,1120.305,81.253Z" transform="translate(-1054.994 -55.014)"/>
      <path id="Trazado_58" data-name="Trazado 58" d="M1146.479,220.413c.009.044.017.089.026.133.074.381.146.769.22,1.161a50.817,50.817,0,0,0,1.557,6.653c.474-1.643.914-3.121,1.341-4.508.04-.128.08-.255.119-.382-.143-.121-.284-.243-.425-.367C1148.33,222.237,1147.377,221.333,1146.479,220.413Z" transform="translate(-1119.615 -171.845)"/>
      <path id="Trazado_59" data-name="Trazado 59" d="M1198.2,141.518a24.085,24.085,0,0,0-2.241,3.273,60.53,60.53,0,0,0-3.24,6.438,12.42,12.42,0,0,0,5.383-7.673A6.026,6.026,0,0,0,1198.2,141.518Z" transform="translate(-1152.276 -116.117)"/>
    </g>
    <path id="Trazado_60" data-name="Trazado 60" d="M1087.184,41.569a6.173,6.173,0,0,1,1.933.284c1.988.645,3.516,2.488,5,4.271a20.065,20.065,0,0,0,3.42,3.509,21.068,21.068,0,0,0,4.549,2.267c2.207.889,4.293,1.728,5.453,3.329,1.177,1.622,1.328,3.876,1.488,6.263a20.764,20.764,0,0,0,.739,4.985,20.478,20.478,0,0,0,2.316,4.408c1.285,2.034,2.5,3.955,2.5,5.994,0,1.93-1.181,3.815-2.431,5.812a21.419,21.419,0,0,0-2.386,4.591,21.416,21.416,0,0,0-.767,5.119c-.162,2.35-.314,4.569-1.449,6.131-1.2,1.65-3.309,2.49-5.544,3.38a20.513,20.513,0,0,0-4.466,2.206,20.766,20.766,0,0,0-3.527,3.6c-1.531,1.836-2.978,3.57-4.884,4.191a5.854,5.854,0,0,1-1.836.268,19.4,19.4,0,0,1-4.535-.78,21.127,21.127,0,0,0-5.011-.839,20.1,20.1,0,0,0-4.831.83,19.217,19.217,0,0,1-4.618.8,6.177,6.177,0,0,1-1.932-.284c-1.987-.645-3.515-2.488-4.993-4.271a20.126,20.126,0,0,0-3.421-3.511,21.122,21.122,0,0,0-4.549-2.266c-2.208-.889-4.293-1.728-5.454-3.329-1.177-1.622-1.327-3.874-1.487-6.26a20.764,20.764,0,0,0-.74-4.988,20.46,20.46,0,0,0-2.317-4.408c-1.285-2.033-2.5-3.954-2.5-5.993,0-1.931,1.18-3.817,2.432-5.814a21.367,21.367,0,0,0,2.385-4.591,21.4,21.4,0,0,0,.769-5.118c.161-2.35.314-4.569,1.449-6.131,1.2-1.65,3.309-2.49,5.544-3.38a20.464,20.464,0,0,0,4.464-2.206,20.72,20.72,0,0,0,3.529-3.6c1.531-1.836,2.977-3.569,4.883-4.19a5.854,5.854,0,0,1,1.835-.268,19.374,19.374,0,0,1,4.534.78,21.119,21.119,0,0,0,5.011.839,20.107,20.107,0,0,0,4.829-.83,19.232,19.232,0,0,1,4.618-.8m-.216-1.739a20.944,20.944,0,0,0-5.144.865,17.61,17.61,0,0,1-4.088.731,18.552,18.552,0,0,1-4.277-.743,21.056,21.056,0,0,0-5.049-.838,8.211,8.211,0,0,0-2.583.387c-2.559.834-4.278,2.893-5.938,4.885A18.185,18.185,0,0,1,1056.9,48.2a17.937,17.937,0,0,1-3.808,1.851c-2.425.965-4.932,1.963-6.536,4.173-1.538,2.118-1.72,4.759-1.9,7.313a18.844,18.844,0,0,1-.632,4.388,18.818,18.818,0,0,1-2.068,3.922c-1.359,2.17-2.764,4.414-2.764,7.032,0,2.73,1.442,5.011,2.837,7.217a17.945,17.945,0,0,1,1.994,3.735,18.2,18.2,0,0,1,.6,4.254c.173,2.588.353,5.263,1.933,7.442,1.564,2.157,4.044,3.155,6.44,4.12a18.555,18.555,0,0,1,3.9,1.913,17.579,17.579,0,0,1,2.878,2.995c1.6,1.927,3.409,4.11,6.053,4.969a8.538,8.538,0,0,0,2.675.4,20.924,20.924,0,0,0,5.143-.865,17.6,17.6,0,0,1,4.089-.731,18.554,18.554,0,0,1,4.276.743,21.072,21.072,0,0,0,5.051.838,8.21,8.21,0,0,0,2.582-.387c2.56-.834,4.278-2.894,5.94-4.886a18.227,18.227,0,0,1,2.985-3.087,18,18,0,0,1,3.81-1.851c2.425-.965,4.932-1.964,6.537-4.172,1.538-2.119,1.719-4.759,1.9-7.314a18.791,18.791,0,0,1,.632-4.389,18.765,18.765,0,0,1,2.067-3.921c1.359-2.17,2.764-4.414,2.764-7.031,0-2.731-1.442-5.013-2.837-7.219a17.953,17.953,0,0,1-1.994-3.734,18.221,18.221,0,0,1-.6-4.253c-.173-2.588-.354-5.264-1.934-7.443-1.565-2.157-4.043-3.155-6.439-4.12a18.535,18.535,0,0,1-3.9-1.913A17.565,17.565,0,0,1,1095.7,45.2c-1.6-1.927-3.41-4.111-6.055-4.969a8.537,8.537,0,0,0-2.676-.4Z" transform="translate(0 0)"/>
  </g>
</svg>