<svg xmlns="http://www.w3.org/2000/svg" width="43.977" height="39.246" viewBox="0 0 43.977 39.246">
  <g id="yir4UD" transform="translate(-260.359 194)">
    <g id="Grupo_204" data-name="Grupo 204" transform="translate(260.359 -194)">
      <g id="Grupo_202" data-name="Grupo 202" transform="translate(0.001)">
        <path id="Trazado_143" data-name="Trazado 143" d="M744.235,123.312a1.619,1.619,0,0,0-1.132.593q-5.133,5.145-10.275,10.283l-4.405,4.406c-.092.094-.186.189-.272.293a1.4,1.4,0,0,0,.747,2.245,1.452,1.452,0,0,0,1.537-.539q4.965-4.978,9.94-9.948l3.792-3.771.653.465a1.673,1.673,0,0,1,.254.2l5.077,5.072a3.6,3.6,0,0,0,.487.434,1.439,1.439,0,0,0,1.956-.372L766.859,118.4c.1-.095.194-.187.313-.3l1.8-1.686V120.6c0,1.1,0,2.2,0,3.3a1.411,1.411,0,0,0,1.409,1.458h0a1.4,1.4,0,0,0,1.412-1.441q.018-5.511,0-11.021a1.4,1.4,0,0,0-1.462-1.447q-5.488-.013-10.971,0a1.414,1.414,0,0,0-1.47,1.4,1.39,1.39,0,0,0,.394,1,1.513,1.513,0,0,0,1.082.435c1.1.007,2.2,0,3.3,0h4.13l-15.609,15.612-.789-.99a2.343,2.343,0,0,0-.209-.256l-.754-.759c-1.314-1.322-2.627-2.644-3.962-3.946a2.422,2.422,0,0,0-.82-.555A1.294,1.294,0,0,0,744.235,123.312Z" transform="translate(-727.833 -111.445)" fill="#ff173b"/>
      </g>
      <g id="Grupo_203" data-name="Grupo 203" transform="translate(0 36.239)">
        <path id="Trazado_144" data-name="Trazado 144" d="M770.047,149.472l-.43-.063c-3.1-.19-25.7-.062-40.131.07-.178,0-.259,0-.342,0a1.414,1.414,0,0,0-1.312,1.377,1.379,1.379,0,0,0,.384,1,1.6,1.6,0,0,0,1.155.447l14.974,0h5.444l19.073,0c.523,0,1.046.008,1.564-.009a1.4,1.4,0,0,0,1-.452,1.425,1.425,0,0,0,.373-1.052C771.75,149.828,770.68,149.55,770.047,149.472Z" transform="translate(-727.833 -149.312)" fill="#ff173b"/>
        <path id="Trazado_145" data-name="Trazado 145" d="M771.43,151.855a1.4,1.4,0,0,1-1,.452c-.518.016-1.04.013-1.564.009l-19.073,0h-5.444l-14.974,0a1.6,1.6,0,0,1-1.155-.447,1.379,1.379,0,0,1-.384-1,1.414,1.414,0,0,1,1.312-1.377c.082-.006.164,0,.342,0,14.426-.132,37.032-.26,40.131-.07l.43.063c.633.078,1.7.356,1.756,1.331A1.425,1.425,0,0,1,771.43,151.855Z" transform="translate(-727.833 -149.312)" fill="#ff173b"/>
      </g>
    </g>
  </g>
</svg>
