<svg xmlns="http://www.w3.org/2000/svg" width="45.332" height="39.625" viewBox="0 0 45.332 39.625">
  <g id="kMJYd2" transform="translate(0 0)">
    <g id="Grupo_201" data-name="Grupo 201" transform="translate(0 0)">
      <path id="Trazado_142" data-name="Trazado 142" d="M882.445,2.716V3.6a.7.7,0,0,0-.063.159,6.356,6.356,0,0,1-3.515,5,.553.553,0,0,0-.327.586q.01,9.411,0,18.822c0,1.036-.4,1.444-1.445,1.445H842.424c-1.045,0-1.445-.4-1.445-1.44q0-9.411.006-18.822a.586.586,0,0,0-.356-.615,6.384,6.384,0,0,1-3.436-4.621,3.024,3.024,0,0,1,.335-2.244c2.121-3.645,4.194-7.318,6.257-11a1.554,1.554,0,0,1,1.532-.885c2.081.023,4.163.008,6.244.008q11.293,0,22.586-.01a1.662,1.662,0,0,1,1.629.953C877.98-5.125,880.218-1.208,882.445,2.716ZM847.139,27.363v-.624c0-3.691.022-7.382-.008-11.072a3.8,3.8,0,0,1,3.406-4.04c1.4-.089,2.8-.007,4.2.007a1.634,1.634,0,0,1,.432.085,3.8,3.8,0,0,1,2.821,3.826q.01,5.647,0,11.294v.5h18.292V9.478a6.607,6.607,0,0,1-5.744-2.851,6.416,6.416,0,0,1-5.358,2.84,6.449,6.449,0,0,1-5.391-2.806,6.6,6.6,0,0,1-10.813-.025,6.6,6.6,0,0,1-5.754,2.843V27.363Zm-6.78-25.892h38.81c-.045-.095-.065-.147-.093-.2Q876.585-3.11,874.1-7.5c-.152-.27-.353-.261-.589-.261q-13.75,0-27.5-.007a.646.646,0,0,0-.654.381q-2.386,4.241-4.8,8.466C840.5,1.194,840.441,1.312,840.359,1.471Zm15.395,25.88c.009-.105.023-.19.023-.275q0-5.819,0-11.638a1.57,1.57,0,0,0-1.647-1.643c-.944-.012-1.888,0-2.832,0-1.338,0-1.913.573-1.913,1.909q0,5.575,0,11.15v.5Zm-16.338-23.6a4.219,4.219,0,0,0,4.439,3.483,4.157,4.157,0,0,0,3.889-3.483Zm10.8,0a4.212,4.212,0,0,0,4.5,3.479A4.1,4.1,0,0,0,858.5,3.748Zm19.109.018h-8.317a4.182,4.182,0,0,0,4.04,3.472A4.219,4.219,0,0,0,869.325,3.766Zm2.467,0a4.211,4.211,0,0,0,8.294,0Z" transform="translate(-837.113 10.014)" fill="#ff173b"/>
    </g>
  </g>
</svg>
