<svg xmlns="http://www.w3.org/2000/svg" width="26.627" height="54.343" viewBox="0 0 26.627 54.343">
  <path id="Trazado_151" data-name="Trazado 151" d="M1016.26,196.209a3.779,3.779,0,0,1-.321-.883c-.054-.5.008-1.008-.019-1.511A2.665,2.665,0,0,1,1017.58,191a2.43,2.43,0,0,1,.54-3.036c-2.731-4.27-3.56-9.073-4.037-13.949-.273-2.8-.313-5.619-.481-8.428a.739.739,0,0,0-.343-.53,4.993,4.993,0,0,1,.01-9.184c.156-.072.327-.112.491-.169l.432-.152a4.94,4.94,0,0,1,4.045-6.982,16.935,16.935,0,0,1,.33-2.409,4.624,4.624,0,0,1,4.318-3.266.707.707,0,0,1,.793.709,3.7,3.7,0,0,0,1.5,2.6,3.521,3.521,0,0,1,3.595-.533.5.5,0,0,0,.419-.174,7.354,7.354,0,0,1,4.679-2.589c.517-.1.872.085.959.473.093.413-.165.752-.705.845a6.409,6.409,0,0,0-3.085,1.3c-.357.294-.657.655-1.007,1.008a3.67,3.67,0,0,1,.943,2.735.629.629,0,0,0,.11.337,4.321,4.321,0,0,1,.05,4.421c-.031.061-.05.126-.085.214a13.821,13.821,0,0,1,1.381.455,5.589,5.589,0,0,1,.48,10.075.748.748,0,0,0-.446.766,67.8,67.8,0,0,1-1.383,14.5,21.873,21.873,0,0,1-3.112,7.88c.954,1.266,1.039,1.723.559,3.061.089.058.182.126.281.182a2.476,2.476,0,0,1,1.354,2.249c.009.643.04,1.289-.009,1.929a3.337,3.337,0,0,1-.328.881Zm-1.307-30.775c0,.249-.005.436,0,.623.053,1.493.073,2.989.169,4.479a52.5,52.5,0,0,0,1.753,11.405,15.961,15.961,0,0,0,2.331,5.139.843.843,0,0,0,.575.316q3.259.037,6.519.005a.845.845,0,0,0,.578-.309,13.688,13.688,0,0,0,1.907-3.8,34.961,34.961,0,0,0,1.778-8.437c.259-2.94.389-5.89.573-8.836.013-.2,0-.395,0-.585Zm7.47-21.15a3.33,3.33,0,0,0-2.612,2.271,3.462,3.462,0,0,0,.11,2.393c.188.52.021.915-.4,1a2.409,2.409,0,0,1-.674,0,3.432,3.432,0,0,0-3.606,4.33,6.45,6.45,0,0,0,.728,1.422c.33.565.1,1.051-.556,1.1-.207.018-.415.026-.623.044a3.633,3.633,0,0,0-3.235,3.609,3.561,3.561,0,0,0,3.3,3.592c2.484.073,4.973.05,7.459.049,2.782,0,5.565.026,8.345-.049a4.228,4.228,0,0,0,1.022-8.214,17.65,17.65,0,0,0-2.1-.242,1.016,1.016,0,0,1-.681-.418c-.088-.175.057-.505.17-.731.089-.177.3-.288.435-.445a3.153,3.153,0,0,0,.776-2.856c-1.992,1.529-3.46,1.732-4.888.7s-1.8-2.514-1.111-4.622A5.3,5.3,0,0,1,1022.423,144.283Zm6.422,50.623c0-.386,0-.713,0-1.04,0-1.292-.391-1.685-1.675-1.686q-4.123,0-8.247,0a1.508,1.508,0,0,0-.716.073c-.324.19-.758.438-.838.743a9.577,9.577,0,0,0-.137,1.908Zm-5.852-4.051v0c.59,0,1.181.006,1.772,0,.641-.01,1.285,0,1.92-.068a.939.939,0,0,0,.793-.957,1.011,1.011,0,0,0-.792-1.021,2.7,2.7,0,0,0-.568-.059q-3.073-.006-6.146,0a2.787,2.787,0,0,0-.567.057,1.023,1.023,0,0,0-.049,1.979,2.9,2.9,0,0,0,.669.072C1021.013,190.859,1022,190.855,1022.992,190.855Zm4.443-39.709a2.208,2.208,0,1,0-2.212-2.2A2.185,2.185,0,0,0,1027.436,151.146Z" transform="translate(-1009.732 -142.365)" fill="#ff173b" stroke="#ff173b" stroke-width="1"/>
</svg>
