<svg xmlns="http://www.w3.org/2000/svg" width="45.83" height="42.248" viewBox="0 0 45.83 42.248">
  <g id="Grupo_191" data-name="Grupo 191" transform="translate(0 0)">
    <path id="Trazado_132" data-name="Trazado 132" d="M885.8,122.843a5.787,5.787,0,0,0-4.542-4.834,16.975,16.975,0,0,0-1.9-.208c.142-.251.289-.488.416-.737a6.745,6.745,0,0,0,.46-3.329,4.549,4.549,0,0,0-9.044-.613c-.08.518-.077,1.049-.111,1.574l-.109.072a3.068,3.068,0,0,0-.289-.395c-1.875-1.881-3.76-3.751-5.628-5.638a2.533,2.533,0,0,0-2.177-1.04,2.3,2.3,0,0,0-1.579.629q-3.029,3.046-6.075,6.076c-.108.109-.227.208-.4.366,0-.313,0-.533,0-.753a4.669,4.669,0,0,0-1.22-3.266,4.557,4.557,0,0,0-7.243.738,6.664,6.664,0,0,0-.512,4.606,8.74,8.74,0,0,0,.658,1.72,15.588,15.588,0,0,0-1.827.2,5.816,5.816,0,0,0-4.619,5.812c-.011,3.8,0,7.608,0,11.412,0,.966.283,1.245,1.262,1.245h13.6c.119,0,.239.005.358-.005a.886.886,0,0,0,.88-.9c.021-.966.022-8.492,0-10.07a.743.743,0,0,0,.006-.2,1.4,1.4,0,0,1,.321-1.029c.871-1.264,1.738-2.532,2.573-3.82a56.613,56.613,0,0,0,3.861-6.066c.008-.016.052-.014.081-.02.238.446.44.914.718,1.333,1.929,2.906,3.877,5.8,5.8,8.707a1.5,1.5,0,0,1,.238.777c.016,3.342.01,6.683.01,10.024,0,.994.277,1.266,1.286,1.266,4.519,0,9.038-.006,13.557.008a1.277,1.277,0,0,0,1.268-.635v-12.8A1.176,1.176,0,0,1,885.8,122.843Zm-38.068-10.115a2.747,2.747,0,0,1,5.239.662c.055.351.052.711.076,1.067a3.2,3.2,0,0,1-.884,2.625,2.733,2.733,0,0,1-4.542-1.234A4.931,4.931,0,0,1,847.729,112.728Zm14.292-2.076a10.154,10.154,0,0,1-1.784,4.853c-1.806,2.665-3.577,5.355-5.413,8a2.8,2.8,0,0,0-.449,1.875c-.022.863,0,8.343-.008,8.912,0,.127-.016.255-.025.368H841.852c-.005-.11-.014-.2-.014-.282,0-3.52,0-7.041.006-10.561a4.148,4.148,0,0,1,.146-1.1,4.037,4.037,0,0,1,4.061-3.063c1.894-.011,3.789-.015,5.683.006a1.685,1.685,0,0,0,1.308-.538q4.289-4.318,8.6-8.611c.11-.111.23-.213.408-.375C862.039,110.366,862.034,110.51,862.021,110.653Zm11.13,2.072a2.747,2.747,0,0,1,5.237.671c.055.352.052.712.075,1.067a3.154,3.154,0,0,1-.954,2.682,2.728,2.728,0,0,1-4.473-1.3A4.924,4.924,0,0,1,873.151,112.724Zm10.917,21.93h-2.49l-1.79,0h-8.235v-.46c0-3.117.012-6.234-.015-9.352a2.158,2.158,0,0,0-.338-1.115c-1.826-2.759-3.679-5.5-5.532-8.242a10.163,10.163,0,0,1-1.8-5.366c.2.189.316.3.43.411q4.288,4.287,8.569,8.58a1.726,1.726,0,0,0,1.347.551c1.879-.022,3.759-.016,5.637-.007a4.037,4.037,0,0,1,4.075,3.045,4.089,4.089,0,0,1,.152,1.1c.012,3.55.007,7.1.006,10.649C884.083,134.506,884.074,134.565,884.068,134.655Z" transform="translate(-840.044 -94.237)" fill="#ff173b"/>
    <path id="Trazado_133" data-name="Trazado 133" d="M873.459,94.919c.55,0,.886-.4.888-1.063q.008-2.483,0-4.966c0-.647-.368-1.065-.9-1.061s-.882.42-.887,1.073c-.006.82,0,1.64,0,2.46s0,1.67,0,2.505C872.566,94.533,872.905,94.922,873.459,94.919Z" transform="translate(-850.537 -87.829)" fill="#ff173b"/>
    <path id="Trazado_134" data-name="Trazado 134" d="M882.413,99.264c.7-.688,1.4-1.381,2.083-2.092a4.473,4.473,0,0,0,.465-.77,3.322,3.322,0,0,0-.647-.738.809.809,0,0,0-1.019.2c-.721.712-1.442,1.426-2.151,2.152a.9.9,0,1,0,1.27,1.252Z" transform="translate(-853.196 -90.323)" fill="#ff173b"/>
    <path id="Trazado_135" data-name="Trazado 135" d="M863.325,99.12a.893.893,0,1,0,1.243-1.272c-.662-.683-1.334-1.358-2.022-2.015a3.948,3.948,0,0,0-.738-.422,3.3,3.3,0,0,0-.733.644.813.813,0,0,0,.2,1.017C861.949,97.762,862.628,98.45,863.325,99.12Z" transform="translate(-846.798 -90.276)" fill="#ff173b"/>
  </g>
</svg>
