<svg xmlns="http://www.w3.org/2000/svg" width="38.281" height="45.479" viewBox="0 0 38.281 45.479">
  <g id="wRKOjM" transform="translate(0 0)">
    <g id="Grupo_200" data-name="Grupo 200" transform="translate(0 0)">
      <g id="Grupo_193" data-name="Grupo 193">
        <path id="Trazado_138" data-name="Trazado 138" d="M1003.114-1.974q-8.65-3.576-17.288-7.18a1.8,1.8,0,0,0-1.49,0q-6.521,2.721-13.049,5.425l-4.236,1.759a1.5,1.5,0,0,0-1.107,1.653v2.8q0,2.8,0,5.6A29.976,29.976,0,0,0,976.3,31a30.043,30.043,0,0,0,8.5,5.169h.57l.464-.194a29.739,29.739,0,0,0,18.388-27.7q0-1.7,0-3.407c0-1.726,0-3.453.006-5.179A1.586,1.586,0,0,0,1003.114-1.974Zm-1.739,7.766V8.251a27.1,27.1,0,0,1-15.743,24.708,1.291,1.291,0,0,1-.554.137,1.189,1.189,0,0,1-.533-.134,26.9,26.9,0,0,1-15.4-20.26,30.739,30.739,0,0,1-.358-5.8l.005-2.161c0-1.394,0-2.522-.012-3.65a.932.932,0,0,1,.663-.979q3.287-1.359,6.573-2.723,4.276-1.774,8.555-3.541a1.469,1.469,0,0,1,1.051.006q3.971,1.637,7.938,3.285,3.574,1.483,7.149,2.961a.967.967,0,0,1,.679,1.014C1001.373,2.673,1001.374,4.232,1001.375,5.792Z" transform="translate(-965.943 9.313)" fill="#ff173b"/>
      </g>
      <g id="Grupo_199" data-name="Grupo 199" transform="translate(10.663 15.873)">
        <g id="Grupo_195" data-name="Grupo 195" transform="translate(0 0.002)">
          <g id="Grupo_194" data-name="Grupo 194">
            <path id="Trazado_139" data-name="Trazado 139" d="M981.195,15.216a1.457,1.457,0,0,0-.261.025,1.341,1.341,0,0,0-1.12.977,1.357,1.357,0,0,0,.39,1.47q2.073,2.081,4.154,4.157l.666.665a1.469,1.469,0,0,0,2.4-.013l8.653-8.654a3.578,3.578,0,0,0,.3-.326,1.424,1.424,0,0,0-2.224-1.777l-7.276,7.284a1.573,1.573,0,0,0-.164.224c-.046.069-.1.148-.162.239l-.3.421-.515-.656a2.448,2.448,0,0,0-.193-.237l-3.287-3.291A1.481,1.481,0,0,0,981.195,15.216Z" transform="translate(-979.738 -11.224)" fill="#ff173b"/>
          </g>
        </g>
        <g id="Grupo_198" data-name="Grupo 198" transform="translate(0)">
          <g id="Grupo_196" data-name="Grupo 196" transform="translate(0.387 0.387)">
            <path id="Trazado_140" data-name="Trazado 140" d="M981.306,15.715a1.013,1.013,0,0,0-.188.019.961.961,0,0,0-.823.713.982.982,0,0,0,.3,1.081q2.073,2.081,4.153,4.156l.666.665c.669.669,1.17.666,1.851-.013l8.654-8.653a3.349,3.349,0,0,0,.27-.289,1.03,1.03,0,0,0,.175-.958,1.055,1.055,0,0,0-1.82-.311l-7.276,7.284a1.856,1.856,0,0,0-.113.164c-.048.072-.1.155-.169.249l-.6.843-.841-1.065a2.069,2.069,0,0,0-.159-.2L982.1,16.11A1.1,1.1,0,0,0,981.306,15.715Z" transform="translate(-980.239 -11.722)" fill="#ff173b"/>
          </g>
          <g id="Grupo_197" data-name="Grupo 197">
            <path id="Trazado_141" data-name="Trazado 141" d="M986.213,23.124a1.726,1.726,0,0,1-1.189-.615l-.884-.883q-1.97-1.968-3.936-3.938a1.359,1.359,0,0,1-.39-1.47,1.341,1.341,0,0,1,1.12-.977,1.375,1.375,0,0,1,1.327.484l3.286,3.29a1.829,1.829,0,0,1,.157.189l.553.7.3-.419c.065-.091.116-.17.162-.239a2.168,2.168,0,0,1,.16-.222l7.279-7.286a1.439,1.439,0,0,1,2.46.463,1.411,1.411,0,0,1-.236,1.314,3.293,3.293,0,0,1-.268.291L987.422,22.5A1.768,1.768,0,0,1,986.213,23.124Zm-5.02-7.136a.619.619,0,0,0-.118.012.578.578,0,0,0-.524.451.6.6,0,0,0,.2.691q1.963,1.971,3.934,3.937l.884.883c.518.518.774.517,1.306-.013l8.653-8.653a3.087,3.087,0,0,0,.238-.251.641.641,0,0,0,.113-.6.629.629,0,0,0-.437-.413c-.16-.046-.376-.11-.74.255l-7.276,7.285s-.035.057-.064.1c-.05.076-.107.162-.177.26l-.893,1.264-1.162-1.47a1.92,1.92,0,0,0-.132-.169l-3.283-3.288C981.433,15.988,981.252,15.988,981.193,15.988Z" transform="translate(-979.738 -11.221)" fill="#ff173b"/>
          </g>
        </g>
      </g>
    </g>
  </g>
</svg>
